<svg data-v-fde0c5aa="" xmlns="http://www.w3.org/2000/svg"  viewBox="0 0 150 50" class="iconLeft">
<!---->
<defs data-v-fde0c5aa="">
<!---->
</defs>

<defs data-v-fde0c5aa="">
<!---->
</defs>
<g data-v-fde0c5aa="" id="7169af78-87fe-49c9-93b4-9d6268a2658a" fill="#1976d2" transform="matrix(1.5,0,0,1.5,40,10)">
<path d="M3.99 13.80L3.99 13.80Q3.28 13.80 2.74 13.36L2.74 13.36L2.74 13.36Q2.20 12.91 2.04 12.24L2.04 12.24L0.31 4.59L0.31 4.59Q0.28 4.40 0.28 4.31L0.28 4.31L0.28 4.31Q0.28 3.77 0.66 3.39L0.66 3.39L0.66 3.39Q1.04 3.01 1.57 3.01L1.57 3.01L1.57 3.01Q2.03 3.01 2.39 3.30L2.39 3.30L2.39 3.30Q2.74 3.58 2.84 4.03L2.84 4.03L4.26 10.71L5.96 4.10L5.96 4.10Q6.08 3.63 6.48 3.32L6.48 3.32L6.48 3.32Q6.87 3.01 7.38 3.01L7.38 3.01L7.38 3.01Q7.88 3.01 8.27 3.32L8.27 3.32L8.27 3.32Q8.67 3.64 8.78 4.10L8.78 4.10L10.47 10.65L11.90 3.96L11.90 3.96Q11.98 3.56 12.32 3.28L12.32 3.28L12.32 3.28Q12.66 3.01 13.08 3.01L13.08 3.01L13.08 3.01Q13.58 3.01 13.93 3.36L13.93 3.36L13.93 3.36Q14.28 3.71 14.28 4.21L14.28 4.21L14.28 4.21Q14.28 4.31 14.25 4.48L14.25 4.48L12.50 12.24L12.50 12.24Q12.35 12.91 11.79 13.36L11.79 13.36L11.79 13.36Q11.24 13.80 10.53 13.80L10.53 13.80L10.53 13.80Q9.83 13.80 9.28 13.38L9.28 13.38L9.28 13.38Q8.74 12.95 8.57 12.29L8.57 12.29L7.25 7.10L5.94 12.29L5.94 12.29Q5.77 12.96 5.23 13.38L5.23 13.38L5.23 13.38Q4.69 13.80 3.99 13.80L3.99 13.80ZM16.86 13.87L16.86 13.87Q16.14 13.87 15.55 13.60L15.55 13.60L15.55 13.60Q14.95 13.33 14.60 12.80L14.60 12.80L14.60 12.80Q14.25 12.28 14.25 11.55L14.25 11.55L14.25 11.55Q14.25 10.07 15.37 9.57L15.37 9.57L15.37 9.57Q16.49 9.07 18.20 9.07L18.20 9.07L18.20 9.07Q18.52 9.07 18.68 9.09L18.68 9.09L19.15 9.10L19.15 9.10Q19.15 8.62 19.08 8.34L19.08 8.34L19.08 8.34Q19.01 8.05 18.78 7.88L18.78 7.88L18.78 7.88Q18.55 7.71 18.09 7.71L18.09 7.71L18.09 7.71Q17.44 7.71 17.14 8.12L17.14 8.12L17.14 8.12Q16.79 8.60 16.28 8.60L16.28 8.60L16.28 8.60Q15.82 8.60 15.49 8.27L15.49 8.27L15.49 8.27Q15.16 7.94 15.16 7.46L15.16 7.46L15.16 7.46Q15.16 7.18 15.29 6.94L15.29 6.94L15.29 6.94Q15.41 6.69 15.65 6.54L15.65 6.54L15.65 6.54Q16.17 6.20 16.81 6.03L16.81 6.03L16.81 6.03Q17.44 5.87 18.12 5.87L18.12 5.87L18.12 5.87Q19.85 5.87 20.76 6.61L20.76 6.61L20.76 6.61Q21.66 7.35 21.66 9.04L21.66 9.04L21.64 11.03L21.64 11.03Q21.64 11.55 21.66 11.80L21.66 11.80L21.67 12.59L21.67 12.59Q21.67 13.08 21.32 13.44L21.32 13.44L21.32 13.44Q20.96 13.80 20.45 13.80L20.45 13.80L20.45 13.80Q19.99 13.80 19.66 13.51L19.66 13.51L19.66 13.51Q19.32 13.22 19.25 12.77L19.25 12.77L19.25 12.77Q18.82 13.37 18.23 13.62L18.23 13.62L18.23 13.62Q17.65 13.87 16.86 13.87L16.86 13.87ZM17.71 12.21L17.71 12.21Q18.40 12.21 18.78 11.75L18.78 11.75L18.78 11.75Q19.17 11.28 19.17 10.58L19.17 10.58L19.17 10.47L18.34 10.46L18.34 10.46Q16.80 10.46 16.80 11.40L16.80 11.40L16.80 11.40Q16.80 11.77 17.06 11.99L17.06 11.99L17.06 11.99Q17.32 12.21 17.71 12.21L17.71 12.21ZM24.16 13.80L24.16 13.80Q23.63 13.80 23.25 13.42L23.25 13.42L23.25 13.42Q22.86 13.03 22.86 12.50L22.86 12.50L22.86 7.15L22.86 7.15Q22.86 6.66 23.22 6.31L23.22 6.31L23.22 6.31Q23.58 5.95 24.07 5.95L24.07 5.95L24.07 5.95Q24.57 5.95 24.93 6.31L24.93 6.31L24.93 6.31Q25.28 6.66 25.28 7.15L25.28 7.15L25.28 7.49L25.34 7.49L25.34 7.49Q25.51 7.07 25.77 6.74L25.77 6.74L25.77 6.74Q26.03 6.41 26.28 6.27L26.28 6.27L26.28 6.27Q26.52 6.15 26.82 6.15L26.82 6.15L26.82 6.15Q27.45 6.15 27.75 6.50L27.75 6.50L27.75 6.50Q28.04 6.86 28.04 7.28L28.04 7.28L28.04 7.28Q28.04 7.71 27.74 8.05L27.74 8.05L27.74 8.05Q27.44 8.39 26.95 8.39L26.95 8.39L26.95 8.39Q26.66 8.39 26.36 8.51L26.36 8.51L26.36 8.51Q26.05 8.64 25.84 8.89L25.84 8.89L25.84 8.89Q25.47 9.35 25.47 10.21L25.47 10.21L25.47 12.50L25.47 12.50Q25.47 13.03 25.08 13.42L25.08 13.42L25.08 13.42Q24.70 13.80 24.16 13.80L24.16 13.80ZM30.09 16.93L30.09 16.93Q29.55 16.93 29.17 16.54L29.17 16.54L29.17 16.54Q28.78 16.16 28.78 15.62L28.78 15.62L28.78 7.14L28.78 7.14Q28.78 6.65 29.13 6.30L29.13 6.30L29.13 6.30Q29.48 5.95 29.97 5.95L29.97 5.95L29.97 5.95Q30.48 5.95 30.83 6.30L30.83 6.30L30.83 6.30Q31.18 6.65 31.18 7.14L31.18 7.14L31.18 7.22L31.18 7.22Q31.64 6.59 32.20 6.25L32.20 6.25L32.20 6.25Q32.76 5.91 33.67 5.91L33.67 5.91L33.67 5.91Q34.68 5.91 35.37 6.42L35.37 6.42L35.37 6.42Q36.06 6.93 36.41 7.79L36.41 7.79L36.41 7.79Q36.75 8.65 36.75 9.73L36.75 9.73L36.75 9.73Q36.75 10.99 36.30 11.93L36.30 11.93L36.30 11.93Q35.85 12.87 35.06 13.36L35.06 13.36L35.06 13.36Q34.27 13.86 33.26 13.86L33.26 13.86L33.26 13.86Q32.19 13.86 31.39 13.15L31.39 13.15L31.39 15.62L31.39 15.62Q31.39 16.16 31.00 16.54L31.00 16.54L31.00 16.54Q30.62 16.93 30.09 16.93L30.09 16.93ZM32.72 12.11L32.72 12.11Q33.33 12.11 33.73 11.55L33.73 11.55L33.73 11.55Q34.13 10.99 34.13 9.87L34.13 9.87L34.13 9.87Q34.13 8.76 33.75 8.25L33.75 8.25L33.75 8.25Q33.36 7.73 32.77 7.73L32.77 7.73L32.77 7.73Q32.12 7.73 31.72 8.26L31.72 8.26L31.72 8.26Q31.32 8.79 31.32 9.87L31.32 9.87L31.32 9.87Q31.32 11.05 31.70 11.58L31.70 11.58L31.70 11.58Q32.09 12.11 32.72 12.11L32.72 12.11ZM42.21 13.93L42.21 13.93Q39.83 13.93 38.80 12.80L38.80 12.80L38.80 12.80Q37.77 11.68 37.77 9.67L37.77 9.67L37.77 4.35L37.77 4.35Q37.77 3.79 38.17 3.40L38.17 3.40L38.17 3.40Q38.57 3.01 39.13 3.01L39.13 3.01L39.13 3.01Q39.69 3.01 40.08 3.40L40.08 3.40L40.08 3.40Q40.47 3.79 40.47 4.35L40.47 4.35L40.47 9.76L40.47 9.76Q40.47 10.68 40.89 11.19L40.89 11.19L40.89 11.19Q41.30 11.70 42.20 11.70L42.20 11.70L42.20 11.70Q43.06 11.70 43.48 11.18L43.48 11.18L43.48 11.18Q43.90 10.65 43.90 9.76L43.90 9.76L43.90 4.34L43.90 4.34Q43.90 3.79 44.30 3.40L44.30 3.40L44.30 3.40Q44.69 3.01 45.23 3.01L45.23 3.01L45.23 3.01Q45.79 3.01 46.19 3.40L46.19 3.40L46.19 3.40Q46.58 3.79 46.58 4.34L46.58 4.34L46.58 9.67L46.58 9.67Q46.58 11.65 45.54 12.79L45.54 12.79L45.54 12.79Q44.51 13.93 42.21 13.93L42.21 13.93ZM49.53 13.80L49.53 13.80Q48.97 13.80 48.58 13.41L48.58 13.41L48.58 13.41Q48.19 13.02 48.19 12.46L48.19 12.46L48.19 4.31L48.19 4.31Q48.19 3.74 48.50 3.43L48.50 3.43L48.50 3.43Q48.80 3.12 49.38 3.12L49.38 3.12L52.81 3.12L52.81 3.12Q54.63 3.12 55.67 3.97L55.67 3.97L55.67 3.97Q56.71 4.82 56.71 6.36L56.71 6.36L56.71 6.36Q56.71 7.38 56.22 8.15L56.22 8.15L56.22 8.15Q55.73 8.92 54.84 9.35L54.84 9.35L54.84 9.38L56.15 11.91L56.15 11.91Q56.31 12.18 56.31 12.52L56.31 12.52L56.31 12.52Q56.31 13.05 55.93 13.43L55.93 13.43L55.93 13.43Q55.55 13.80 55.01 13.80L55.01 13.80L55.01 13.80Q54.64 13.80 54.33 13.62L54.33 13.62L54.33 13.62Q54.01 13.43 53.86 13.10L53.86 13.10L52.29 10.08L50.88 10.08L50.88 12.46L50.88 12.46Q50.88 13.02 50.48 13.41L50.48 13.41L50.48 13.41Q50.09 13.80 49.53 13.80L49.53 13.80ZM50.88 7.95L52.23 7.95L52.23 7.95Q53.02 7.95 53.49 7.64L53.49 7.64L53.49 7.64Q53.96 7.34 53.96 6.54L53.96 6.54L53.96 6.54Q53.96 5.71 53.49 5.40L53.49 5.40L53.49 5.40Q53.03 5.10 52.23 5.10L52.23 5.10L50.88 5.10L50.88 7.95ZM59.15 13.69L59.15 13.69Q58.58 13.69 58.27 13.38L58.27 13.38L58.27 13.38Q57.96 13.08 57.96 12.50L57.96 12.50L57.96 4.35L57.96 4.35Q57.96 3.79 58.35 3.40L58.35 3.40L58.35 3.40Q58.74 3.01 59.30 3.01L59.30 3.01L59.30 3.01Q59.86 3.01 60.26 3.40L60.26 3.40L60.26 3.40Q60.65 3.79 60.65 4.35L60.65 4.35L60.65 11.49L64.34 11.49L64.34 11.49Q64.79 11.49 65.11 11.82L65.11 11.82L65.11 11.82Q65.44 12.14 65.44 12.59L65.44 12.59L65.44 12.59Q65.44 13.05 65.11 13.37L65.11 13.37L65.11 13.37Q64.79 13.69 64.34 13.69L64.34 13.69L59.15 13.69Z">
</path>
</g>
<defs data-v-fde0c5aa="">
<!---->
</defs>
<g data-v-fde0c5aa="" id="a88d7a7b-306a-4e23-b889-123e18c9a94a" stroke="none" fill="#1976d2" transform="matrix(1.25,0,0,1.25,0,5)">
<g xmlns="http://www.w3.org/2000/svg" xmlns:xlink="http://www.w3.org/1999/xlink" transform="translate(-450 -320)">
<path fill="#250448" d="M477.903 333.73c.554 3.9-1.322 8.195-4.745 10.642-1.681 1.262-3.731 2.027-5.838 2.295-2.073.279-4.436-.119-6.325-1.225a10.003 10.003 0 0 1-4.224-4.906c-.777-2.051-.897-4.332-.228-6.389a9.285 9.285 0 0 1 3.729-4.979c1.734-1.139 3.83-1.641 5.775-1.367-3.911.477-6.987 3.416-7.675 6.834-.759 3.414.871 7.072 3.836 8.709a7.689 7.689 0 0 0 2.333.91c.814.18 1.665.184 2.558.135 1.756-.107 3.467-.685 5.011-1.584 3.084-1.83 5.306-5.186 5.793-9.075z">
</path>
<path  d="M452.096 335.826c-.554-3.9 1.322-8.195 4.744-10.641 1.682-1.262 3.73-2.027 5.838-2.297 2.074-.279 4.437.119 6.326 1.225a10.014 10.014 0 0 1 4.225 4.906c.777 2.049.897 4.332.228 6.389a9.294 9.294 0 0 1-3.729 4.978c-1.734 1.139-3.831 1.641-5.775 1.367 3.911-.477 6.986-3.416 7.676-6.836.758-3.412-.874-7.07-3.838-8.707a7.647 7.647 0 0 0-2.333-.91c-.815-.18-1.665-.184-2.558-.133-1.756.105-3.467.685-5.011 1.584-3.084 1.833-5.306 5.187-5.793 9.075z">
</path>
<circle cx="465" cy="335" r="4">
</circle>
</g>
</g>
<!---->
</svg>
